<svg width="41" height="31" viewBox="0 0 41 31" fill="none" xmlns="http://www.w3.org/2000/svg">
<path fill-rule="evenodd" clip-rule="evenodd" d="M12.0624 27.3438C12.0624 26.9709 12.2106 26.6132 12.4743 26.3495C12.738 26.0857 13.0957 25.9376 13.4687 25.9376H38.7812C39.1542 25.9376 39.5118 26.0857 39.7756 26.3495C40.0393 26.6132 40.1874 26.9709 40.1874 27.3438C40.1874 27.7168 40.0393 28.0745 39.7756 28.3382C39.5118 28.6019 39.1542 28.7501 38.7812 28.7501H13.4687C13.0957 28.7501 12.738 28.6019 12.4743 28.3382C12.2106 28.0745 12.0624 27.7168 12.0624 27.3438ZM12.0624 16.0938C12.0624 15.7209 12.2106 15.3632 12.4743 15.0995C12.738 14.8357 13.0957 14.6876 13.4687 14.6876H38.7812C39.1542 14.6876 39.5118 14.8357 39.7756 15.0995C40.0393 15.3632 40.1874 15.7209 40.1874 16.0938C40.1874 16.4668 40.0393 16.8245 39.7756 17.0882C39.5118 17.3519 39.1542 17.5001 38.7812 17.5001H13.4687C13.0957 17.5001 12.738 17.3519 12.4743 17.0882C12.2106 16.8245 12.0624 16.4668 12.0624 16.0938ZM12.0624 4.84382C12.0624 4.47086 12.2106 4.11318 12.4743 3.84945C12.738 3.58573 13.0957 3.43757 13.4687 3.43757H38.7812C39.1542 3.43757 39.5118 3.58573 39.7756 3.84945C40.0393 4.11318 40.1874 4.47086 40.1874 4.84382C40.1874 5.21678 40.0393 5.57447 39.7756 5.83819C39.5118 6.10191 39.1542 6.25007 38.7812 6.25007H13.4687C13.0957 6.25007 12.738 6.10191 12.4743 5.83819C12.2106 5.57447 12.0624 5.21678 12.0624 4.84382ZM8.83932 1.0357C8.97028 1.16633 9.07418 1.32151 9.14507 1.49235C9.21597 1.6632 9.25246 1.84635 9.25246 2.03132C9.25246 2.21629 9.21597 2.39945 9.14507 2.57029C9.07418 2.74114 8.97028 2.89632 8.83932 3.02695L4.62057 7.2457C4.48994 7.37666 4.33476 7.48056 4.16391 7.55145C3.99307 7.62235 3.80992 7.65884 3.62494 7.65884C3.43997 7.65884 3.25682 7.62235 3.08598 7.55145C2.91513 7.48056 2.75995 7.37666 2.62932 7.2457L1.22307 5.83945C1.09232 5.7087 0.988608 5.55348 0.917848 5.38265C0.847089 5.21182 0.810669 5.02873 0.810669 4.84382C0.810669 4.65892 0.847089 4.47582 0.917848 4.30499C0.988608 4.13416 1.09232 3.97894 1.22307 3.8482C1.35382 3.71745 1.50904 3.61374 1.67987 3.54298C1.8507 3.47222 2.03379 3.4358 2.2187 3.4358C2.4036 3.4358 2.58669 3.47222 2.75752 3.54298C2.92835 3.61374 3.08357 3.71745 3.21432 3.8482L3.62494 4.26164L6.84807 1.0357C6.9787 0.904738 7.13388 0.800837 7.30472 0.729944C7.47557 0.65905 7.65872 0.622559 7.84369 0.622559C8.02867 0.622559 8.21182 0.65905 8.38266 0.729944C8.55351 0.800837 8.70869 0.904738 8.83932 1.0357ZM8.83932 12.2857C8.97028 12.4163 9.07418 12.5715 9.14507 12.7424C9.21597 12.9132 9.25246 13.0964 9.25246 13.2813C9.25246 13.4663 9.21597 13.6494 9.14507 13.8203C9.07418 13.9911 8.97028 14.1463 8.83932 14.2769L4.62057 18.4957C4.48994 18.6267 4.33476 18.7306 4.16391 18.8015C3.99307 18.8723 3.80992 18.9088 3.62494 18.9088C3.43997 18.9088 3.25682 18.8723 3.08598 18.8015C2.91513 18.7306 2.75995 18.6267 2.62932 18.4957L1.22307 17.0894C0.959014 16.8254 0.810669 16.4673 0.810669 16.0938C0.810669 15.7204 0.959014 15.3623 1.22307 15.0982C1.48713 14.8341 1.84526 14.6858 2.2187 14.6858C2.59213 14.6858 2.95026 14.8341 3.21432 15.0982L3.62494 15.5116L6.84807 12.2857C6.9787 12.1547 7.13388 12.0508 7.30472 11.9799C7.47557 11.9091 7.65872 11.8726 7.84369 11.8726C8.02867 11.8726 8.21182 11.9091 8.38266 11.9799C8.55351 12.0508 8.70869 12.1547 8.83932 12.2857ZM8.83932 23.5357C8.97028 23.6663 9.07418 23.8215 9.14507 23.9924C9.21597 24.1632 9.25246 24.3464 9.25246 24.5313C9.25246 24.7163 9.21597 24.8994 9.14507 25.0703C9.07418 25.2411 8.97028 25.3963 8.83932 25.5269L4.62057 29.7457C4.48994 29.8767 4.33476 29.9806 4.16391 30.0515C3.99307 30.1223 3.80992 30.1588 3.62494 30.1588C3.43997 30.1588 3.25682 30.1223 3.08598 30.0515C2.91513 29.9806 2.75995 29.8767 2.62932 29.7457L1.22307 28.3394C0.959014 28.0754 0.810669 27.7173 0.810669 27.3438C0.810669 26.9704 0.959014 26.6123 1.22307 26.3482C1.48713 26.0841 1.84526 25.9358 2.2187 25.9358C2.59213 25.9358 2.95026 26.0841 3.21432 26.3482L3.62494 26.7616L6.84807 23.5357C6.9787 23.4047 7.13388 23.3008 7.30472 23.2299C7.47557 23.1591 7.65872 23.1226 7.84369 23.1226C8.02867 23.1226 8.21182 23.1591 8.38266 23.2299C8.55351 23.3008 8.70869 23.4047 8.83932 23.5357Z" fill="white"/>
</svg>
